<?xml version="1.0" standalone="no"?>
<!DOCTYPE svg PUBLIC "-//W3C//DTD SVG 20010904//EN"
 "http://www.w3.org/TR/2001/REC-SVG-20010904/DTD/svg10.dtd">
<svg version="1.0" xmlns="http://www.w3.org/2000/svg"
 width="1024.000000pt" height="1024.000000pt" viewBox="0 0 1024.000000 1024.000000"
 preserveAspectRatio="xMidYMid meet">

<g transform="translate(0.000000,1024.000000) scale(0.100000,-0.100000)"
fill="#000000" stroke="none">
<path d="M3688 7274 c-301 -55 -571 -270 -687 -549 -65 -155 -62 -66 -59
-1723 4 -1696 -4 -1542 82 -1717 56 -113 123 -202 220 -291 92 -86 195 -146
329 -193 l102 -36 1415 -3 c1553 -3 1474 -5 1638 58 214 82 389 244 492 455
92 187 85 38 85 1755 l0 1515 -28 88 c-48 154 -114 261 -228 374 -93 92 -162
140 -274 194 -191 92 -38 84 -1615 86 -1157 1 -1408 -1 -1472 -13z m2806 -319
c180 -38 329 -150 420 -316 69 -126 66 -40 66 -1610 0 -981 -3 -1433 -11
-1474 -31 -170 -170 -345 -334 -421 -122 -56 -55 -54 -1505 -54 -1120 0 -1346
3 -1403 15 -206 43 -400 235 -449 445 -10 44 -13 349 -12 1480 1 1590 -4 1480
72 1624 44 85 153 199 232 243 63 35 135 61 200 73 25 4 632 8 1350 9 1111 1
1315 -2 1374 -14z"/>
<path d="M4685 6696 c-60 -19 -95 -39 -148 -86 -61 -54 -96 -115 -117 -201
-18 -79 4 -61 -320 -259 -96 -59 -224 -138 -285 -175 -212 -130 -250 -171
-281 -300 -19 -85 -13 -150 22 -221 23 -48 83 -115 130 -143 18 -11 18 -12 -6
-29 -59 -41 -92 -78 -121 -137 -26 -54 -31 -75 -31 -137 0 -107 27 -171 103
-243 l60 -58 -50 -44 c-86 -76 -130 -199 -110 -310 22 -119 91 -193 295 -316
71 -43 221 -136 334 -208 514 -328 745 -472 801 -500 77 -40 187 -50 270 -26
57 17 201 104 669 404 146 93 361 229 479 303 118 73 232 151 252 173 95 97
122 241 68 358 -26 54 -79 117 -129 153 -17 12 -21 20 -12 23 44 17 100 75
132 137 31 61 35 77 35 145 -1 60 -6 87 -26 131 -23 49 -80 115 -133 153 -17
13 -15 16 32 50 60 43 95 99 118 187 29 115 -5 237 -92 322 -45 45 -121 94
-543 351 l-234 142 -18 73 c-10 41 -28 89 -39 107 -32 51 -123 130 -188 162
l-57 28 -410 2 c-311 2 -420 -1 -450 -11z m866 -209 c24 -13 57 -42 73 -65 26
-37 31 -54 36 -134 11 -163 51 -217 246 -334 253 -151 410 -247 438 -267 41
-29 60 -80 46 -123 -14 -41 -31 -53 -465 -324 -170 -106 -391 -244 -490 -305
-231 -145 -253 -155 -315 -155 -64 0 -85 10 -340 175 -181 117 -556 353 -813
513 -98 61 -117 82 -117 129 0 46 35 79 170 160 440 265 493 302 530 373 22
44 30 80 39 185 9 96 34 140 99 175 35 18 60 19 428 20 390 0 391 0 435 -23z
m-1515 -1419 c27 -17 180 -113 339 -213 160 -100 360 -226 445 -280 85 -55
178 -107 205 -117 92 -32 188 -19 282 40 26 16 172 107 323 202 632 398 623
393 667 398 35 4 46 0 67 -21 26 -26 36 -87 18 -113 -4 -6 -59 -44 -122 -84
-63 -40 -259 -164 -435 -275 -176 -111 -380 -241 -454 -289 -162 -106 -194
-120 -265 -114 -60 5 -79 15 -346 190 -170 111 -349 224 -655 416 -110 68
-210 134 -222 145 -26 23 -31 83 -10 109 37 47 96 49 163 6z m-61 -548 c28
-11 368 -222 740 -460 311 -199 302 -195 405 -195 94 0 121 11 263 102 95 61
663 418 797 500 91 56 110 64 140 59 46 -7 70 -38 70 -90 0 -51 -19 -70 -135
-141 -44 -27 -172 -107 -285 -178 -113 -72 -266 -168 -340 -215 -74 -47 -189
-120 -256 -162 -149 -96 -178 -111 -229 -121 -61 -12 -100 3 -235 92 -69 45
-215 139 -325 209 -110 70 -308 195 -440 279 -132 84 -250 162 -263 175 -15
14 -23 35 -24 61 -1 31 4 43 30 67 35 31 47 33 87 18z"/>
<path d="M5030 6335 c-263 -72 -348 -405 -154 -599 73 -73 139 -101 244 -101
74 0 93 4 151 31 111 53 173 134 199 258 52 252 -192 479 -440 411z m166 -216
c139 -67 99 -258 -58 -284 -92 -16 -189 82 -173 174 18 108 128 160 231 110z"/>
</g>
</svg>
